<?xml version="1.0" standalone="no"?>
<!DOCTYPE svg PUBLIC "-//W3C//DTD SVG 20010904//EN"
 "http://www.w3.org/TR/2001/REC-SVG-20010904/DTD/svg10.dtd">
<svg version="1.0" xmlns="http://www.w3.org/2000/svg"
 width="640.000000pt" height="640.000000pt" viewBox="0 0 640.000000 640.000000"
 preserveAspectRatio="xMidYMid meet">
<metadata>
Created by potrace 1.14, written by Peter Selinger 2001-2017
</metadata>
<g transform="translate(0.000000,640.000000) scale(0.100000,-0.100000)"
fill="#000000" stroke="none">
<path d="M0 3200 l0 -3200 3200 0 3200 0 0 3200 0 3200 -3200 0 -3200 0 0
-3200z m1144 908 c61 -86 -58 -419 -225 -634 -38 -50 -56 -88 -92 -195 -42
-126 -63 -209 -54 -209 3 0 29 24 58 53 30 30 72 67 94 83 22 16 42 32 45 35
14 18 126 69 151 69 40 0 76 -16 88 -39 12 -22 -12 -109 -93 -335 -72 -201
-61 -220 56 -103 142 141 209 229 238 309 64 182 168 289 284 290 82 2 133
-55 104 -115 l-16 -32 -10 27 c-25 62 -74 55 -143 -19 -97 -103 -194 -303
-146 -303 20 0 80 60 161 162 37 48 74 89 82 92 25 9 63 -12 70 -39 7 -29 5
-37 -31 -124 -42 -101 -19 -139 61 -100 29 14 75 56 136 125 85 95 98 117 155
242 58 128 63 137 89 137 21 0 34 -9 51 -34 30 -45 29 -59 -13 -144 -41 -84
-55 -117 -49 -117 2 0 32 27 67 60 139 132 261 146 284 32 4 -18 9 -32 13 -32
3 0 26 5 51 11 25 6 73 14 108 17 l63 7 43 100 c40 93 45 100 71 100 22 0 35
-9 52 -34 13 -19 23 -42 23 -53 0 -10 -18 -57 -41 -104 -22 -47 -38 -88 -36
-90 2 -3 19 10 38 27 102 95 160 129 224 129 43 0 71 -26 81 -75 6 -34 9 -36
33 -30 14 4 61 13 105 19 76 11 79 13 97 49 11 20 24 37 30 37 6 0 24 -13 40
-29 40 -41 38 -85 -11 -250 -57 -187 -53 -195 46 -96 160 161 204 215 248 303
55 109 73 127 110 111 31 -15 43 -51 27 -85 -17 -38 -14 -38 32 0 42 34 85 56
112 56 30 0 83 -60 90 -100 8 -47 -10 -92 -82 -202 -62 -94 -89 -151 -98 -200
-6 -33 -5 -38 12 -38 30 0 108 62 201 158 61 64 82 93 82 113 0 43 38 150 68
194 63 91 168 137 221 98 28 -22 36 -56 26 -112 -5 -29 -26 -55 -101 -126
-102 -97 -124 -136 -97 -174 35 -51 147 -2 279 122 l90 85 -4 61 c-4 54 -1 70
29 129 35 72 122 167 160 177 13 3 42 0 64 -8 l40 -14 11 -86 c7 -48 17 -100
22 -116 11 -32 7 -41 -19 -41 -25 0 -57 45 -75 106 -8 30 -20 56 -25 60 -27
17 -109 -101 -109 -157 0 -31 10 -49 50 -98 28 -34 54 -61 59 -61 5 0 37 13
72 29 35 15 94 38 132 50 l67 23 0 41 c0 88 107 217 179 217 20 0 47 -6 61
-13 22 -11 26 -20 30 -86 6 -93 -6 -117 -39 -75 -12 16 -25 41 -28 56 -8 39
-34 36 -72 -7 -23 -27 -31 -45 -31 -75 0 -38 10 -53 99 -153 4 -4 39 4 77 19
141 53 221 69 212 42 -4 -10 -190 -120 -222 -131 -5 -2 1 -17 14 -35 72 -97 9
-321 -130 -463 -78 -79 -144 -113 -217 -113 -62 0 -94 23 -119 90 -34 88 4
216 98 335 40 50 56 66 148 147 l35 30 -23 29 c-12 15 -30 43 -39 61 -9 17
-21 32 -26 32 -6 0 -59 -26 -119 -57 -95 -50 -108 -60 -103 -78 24 -73 29
-117 17 -163 -41 -155 -158 -282 -260 -282 -97 0 -135 45 -130 156 3 63 8 78
42 130 21 32 65 85 98 116 l60 57 -28 40 c-16 22 -31 41 -34 41 -3 0 -18 -19
-35 -41 -50 -68 -178 -184 -230 -209 -92 -45 -196 -25 -231 42 l-17 32 -41
-49 c-140 -167 -227 -209 -300 -144 -67 58 -60 161 23 333 28 58 51 111 51
116 0 14 -27 12 -60 -5 -41 -21 -76 -71 -139 -199 -61 -121 -85 -142 -96 -82
-4 19 -5 56 -3 81 2 25 1 45 -2 45 -3 -1 -25 -27 -49 -59 -107 -144 -186 -199
-239 -165 -49 32 -64 72 -59 159 3 44 13 113 23 152 10 40 15 75 13 78 -7 6
-128 -29 -167 -49 -21 -11 -42 -35 -61 -74 -83 -164 -324 -286 -369 -187 -16
34 -15 85 1 85 6 0 34 25 60 55 40 46 69 65 163 111 121 60 133 75 95 113 -16
16 -26 18 -50 11 -39 -11 -44 -14 -121 -76 -96 -77 -136 -122 -166 -189 -35
-80 -143 -366 -204 -540 -58 -168 -86 -235 -98 -235 -13 0 -32 71 -32 116 0
102 100 423 233 749 25 61 41 111 37 113 -14 5 -132 -28 -171 -49 -28 -14 -46
-35 -70 -80 -50 -94 -148 -179 -237 -205 -68 -21 -98 -18 -121 12 -22 27 -29
94 -11 94 5 0 37 27 70 60 46 46 83 71 165 110 106 51 116 61 95 101 -16 28
-68 24 -121 -9 -74 -48 -188 -161 -215 -214 -26 -52 -99 -240 -179 -463 -90
-252 -120 -328 -131 -332 -16 -5 -34 51 -34 106 0 78 65 307 176 616 5 16 0
13 -27 -11 -78 -71 -161 -109 -212 -98 -34 7 -75 46 -83 78 l-6 24 -50 -31
c-69 -43 -134 -45 -176 -4 l-29 28 -47 -58 c-70 -85 -170 -186 -216 -218 -67
-47 -138 -32 -180 38 -27 44 -25 69 14 194 38 120 56 165 92 236 13 27 24 51
24 53 0 11 -20 2 -46 -21 -16 -14 -35 -23 -42 -20 -7 3 -11 1 -7 -4 3 -5 -14
-24 -37 -42 -52 -41 -101 -92 -135 -141 -14 -21 -30 -35 -36 -31 -5 3 -7 1 -3
-5 6 -11 -30 -82 -42 -82 -15 1 -40 27 -56 58 -13 25 -17 57 -17 120 0 73 8
112 45 237 68 232 144 429 247 640 85 176 161 244 203 183z m2481 -518 c13
-14 16 -28 11 -50 -6 -32 -63 -120 -77 -120 -13 0 -28 34 -35 77 -13 83 54
145 101 93z"/>
<path d="M1082 3936 c-23 -49 -42 -91 -42 -93 0 -3 -29 -71 -65 -152 -35 -81
-69 -160 -74 -174 -18 -47 6 -29 47 36 102 161 186 365 180 435 -3 36 -4 35
-46 -52z"/>
<path d="M4513 3305 c-29 -24 -61 -85 -44 -85 9 0 101 96 101 105 0 12 -27 3
-57 -20z"/>
<path d="M2345 3104 c-125 -63 -164 -94 -117 -94 47 0 210 106 191 124 -3 3
-36 -11 -74 -30z"/>
<path d="M3035 3103 c-116 -57 -161 -93 -117 -93 46 0 210 106 191 124 -2 2
-35 -12 -74 -31z"/>
<path d="M5318 2910 c-106 -108 -156 -194 -165 -285 l-6 -55 30 0 c116 0 314
330 250 415 -15 19 -19 16 -109 -75z"/>
<path d="M4903 2957 c-83 -87 -148 -206 -126 -228 17 -17 108 75 142 143 32
63 36 84 23 105 -6 9 -17 4 -39 -20z"/>
</g>
</svg>
